<svg xmlns="http://www.w3.org/2000/svg" viewBox="0 0 32 40" x="0px" y="0px"><title>office vol.2</title><path d="M29.12,10.91,27,7.18a1,1,0,0,0-1.19-.45l-3,1a10.57,10.57,0,0,0-3-1.75l-.62-3.11a1,1,0,0,0-1-.8h-4.3a1,1,0,0,0-1,.8L12.25,6a10.7,10.7,0,0,0-3,1.75l-3-1A1,1,0,0,0,5,7.18L2.88,10.91a1,1,0,0,0,.21,1.26l2.38,2.08A10.34,10.34,0,0,0,5.32,16a10.55,10.55,0,0,0,.15,1.76L3.08,19.85a1,1,0,0,0-.2,1.25L5,24.83a1,1,0,0,0,1.19.44l3-1a10.73,10.73,0,0,0,3,1.76l.62,3.1a1,1,0,0,0,1,.8h4.29a1,1,0,0,0,.72-.3,1,1,0,0,0,.27-.51l.16-.74s0-.05,0-.07L19.75,26a11.05,11.05,0,0,0,3-1.75l3,1A1,1,0,0,0,27,24.83l2.15-3.73a1,1,0,0,0-.2-1.25l-2.38-2.1A11.67,11.67,0,0,0,26.68,16a10.55,10.55,0,0,0-.13-1.7.07.07,0,0,0,0-.05l2.38-2.09A1,1,0,0,0,29.12,10.91ZM16,21a5,5,0,1,1,5-5A5,5,0,0,1,16,21Z"/><text x="0" y="47" fill="#000000" font-size="5px" font-weight="bold" font-family="'Helvetica Neue', Helvetica, Arial-Unicode, Arial, Sans-serif">Created by Lagot Design</text><text x="0" y="52" fill="#000000" font-size="5px" font-weight="bold" font-family="'Helvetica Neue', Helvetica, Arial-Unicode, Arial, Sans-serif">from the Noun Project</text></svg>